<?xml version="1.0" encoding="UTF-8" standalone="no"?>
<svg
   xmlns:dc="http://purl.org/dc/elements/1.1/"
   xmlns:cc="http://creativecommons.org/ns#"
   xmlns:rdf="http://www.w3.org/1999/02/22-rdf-syntax-ns#"
   xmlns:svg="http://www.w3.org/2000/svg"
   xmlns="http://www.w3.org/2000/svg"
   height="448"
   width="448"
   id="svg4"
   version="1.1"
   viewBox="0 0 448 448">
  <metadata
     id="metadata10">
    <rdf:RDF>
      <cc:Work
         rdf:about="">
        <dc:format>image/svg+xml</dc:format>
        <dc:type
           rdf:resource="http://purl.org/dc/dcmitype/StillImage" />
        <dc:title></dc:title>
      </cc:Work>
    </rdf:RDF>
  </metadata>
  <defs
     id="defs8" />
  <path
     style="fill:#245a7d;fill-opacity:1"
     id="path2"
     d="M 416,272 H 32 C 14.33,272 0,286.33 0,304 v 32 c 0,17.67 14.33,32 32,32 h 384 c 17.67,0 32,-14.33 32,-32 v -32 c 0,-17.67 -14.33,-32 -32,-32 z M 416,80 H 32 C 14.33,80 0,94.33 0,112 v 32 c 0,17.67 14.33,32 32,32 h 384 c 17.67,0 32,-14.33 32,-32 V 112 C 448,94.33 433.67,80 416,80 Z" />
</svg>
