<?xml version="1.0" encoding="UTF-8" standalone="no"?>
<!-- Created with Inkscape (http://www.inkscape.org/) -->

<svg
   xmlns:dc="http://purl.org/dc/elements/1.1/"
   xmlns:cc="http://creativecommons.org/ns#"
   xmlns:rdf="http://www.w3.org/1999/02/22-rdf-syntax-ns#"
   xmlns:svg="http://www.w3.org/2000/svg"
   xmlns="http://www.w3.org/2000/svg"
   xmlns:sodipodi="http://sodipodi.sourceforge.net/DTD/sodipodi-0.dtd"
   xmlns:inkscape="http://www.inkscape.org/namespaces/inkscape"
   width="64"
   height="64"
   viewBox="0 0 16.933333 16.933335"
   version="1.1"
   id="svg8"
   inkscape:version="0.92.3 (2405546, 2018-03-11)"
   sodipodi:docname="700.svg"
   inkscape:export-filename="C:\Users\david\Dropbox\Music_Projects\OM_LIBS\omdsg\resources\icon\700.png"
   inkscape:export-xdpi="96"
   inkscape:export-ydpi="96">
  <defs
     id="defs2" />
  <sodipodi:namedview
     id="base"
     pagecolor="#ffffff"
     bordercolor="#666666"
     borderopacity="1.0"
     inkscape:pageopacity="0.0"
     inkscape:pageshadow="2"
     inkscape:zoom="5.6"
     inkscape:cx="-59.961947"
     inkscape:cy="19.075488"
     inkscape:document-units="mm"
     inkscape:current-layer="layer1"
     showgrid="false"
     units="px"
     showguides="true"
     inkscape:guide-bbox="true"
     inkscape:window-width="1920"
     inkscape:window-height="1027"
     inkscape:window-x="-8"
     inkscape:window-y="-8"
     inkscape:window-maximized="1"
     fit-margin-top="0"
     fit-margin-left="0"
     fit-margin-right="0"
     fit-margin-bottom="0" />
  <metadata
     id="metadata5">
    <rdf:RDF>
      <cc:Work
         rdf:about="">
        <dc:format>image/svg+xml</dc:format>
        <dc:type
           rdf:resource="http://purl.org/dc/dcmitype/StillImage" />
        <dc:title></dc:title>
      </cc:Work>
    </rdf:RDF>
  </metadata>
  <g
     inkscape:groupmode="layer"
     id="layer2"
     inkscape:label="Staves"
     style="display:inline"
     transform="translate(-0.45788688,4.121088)" />
  <g
     inkscape:label="Notes"
     inkscape:groupmode="layer"
     id="layer1"
     transform="translate(-0.45788688,-275.94557)">
    <g
       style="font-size:3.86623287px;font-family:serif;text-anchor:start;fill:currentColor;stroke-width:1.75729871"
       id="text881" />
    <g
       id="g1057"
       transform="matrix(1.0571731,0,0,1.0560443,-0.18601331,-19.309996)">
      <path
         sodipodi:nodetypes="ccccc"
         d="M 0.60907748,2.918471 H 16.626637 V 2.653119 H 0.60907748 Z"
         style="font-style:normal;font-variant:normal;font-weight:normal;font-stretch:normal;font-size:medium;line-height:1.25;font-family:bravura;-inkscape-font-specification:bravura;letter-spacing:0px;word-spacing:0px;display:inline;fill:#000000;fill-opacity:1;stroke:none;stroke-width:0.2073103"
         id="path843"
         inkscape:connector-curvature="0"
         transform="translate(0,280.06665)" />
      <path
         inkscape:connector-curvature="0"
         id="path943"
         style="font-style:normal;font-variant:normal;font-weight:normal;font-stretch:normal;font-size:medium;line-height:1.25;font-family:bravura;-inkscape-font-specification:bravura;letter-spacing:0px;word-spacing:0px;display:inline;fill:#000000;fill-opacity:1;stroke:none;stroke-width:0.2073103"
         d="M 0.60907748,11.210889 H 16.626637 V 10.945537 H 0.60907748 Z"
         sodipodi:nodetypes="ccccc"
         transform="translate(0,280.06665)" />
      <path
         sodipodi:nodetypes="ccccc"
         d="M 0.60907748,4.9915757 H 16.626637 V 4.7262238 H 0.60907748 Z"
         style="font-style:normal;font-variant:normal;font-weight:normal;font-stretch:normal;font-size:medium;line-height:1.25;font-family:bravura;-inkscape-font-specification:bravura;letter-spacing:0px;word-spacing:0px;display:inline;fill:#000000;fill-opacity:1;stroke:none;stroke-width:0.2073103"
         id="path945"
         inkscape:connector-curvature="0"
         transform="translate(0,280.06665)" />
      <path
         inkscape:connector-curvature="0"
         id="path947"
         style="font-style:normal;font-variant:normal;font-weight:normal;font-stretch:normal;font-size:medium;line-height:1.25;font-family:bravura;-inkscape-font-specification:bravura;letter-spacing:0px;word-spacing:0px;display:inline;fill:#000000;fill-opacity:1;stroke:none;stroke-width:0.2073103"
         d="M 0.60907748,7.0646804 H 16.626637 V 6.7993284 H 0.60907748 Z"
         sodipodi:nodetypes="ccccc"
         transform="translate(0,280.06665)" />
      <path
         sodipodi:nodetypes="ccccc"
         d="M 0.60907748,9.1377842 H 16.626637 V 8.8724323 H 0.60907748 Z"
         style="font-style:normal;font-variant:normal;font-weight:normal;font-stretch:normal;font-size:medium;line-height:1.25;font-family:bravura;-inkscape-font-specification:bravura;letter-spacing:0px;word-spacing:0px;display:inline;fill:#000000;fill-opacity:1;stroke:none;stroke-width:0.2073103"
         id="path949"
         inkscape:connector-curvature="0"
         transform="translate(0,280.06665)" />
      <g
         id="text833"
         style="font-style:normal;font-variant:normal;font-weight:normal;font-stretch:normal;font-size:8.2924118px;line-height:1.25;font-family:Academico;-inkscape-font-specification:Academico;letter-spacing:0px;word-spacing:0px;fill:#000000;fill-opacity:1;stroke:none;stroke-width:0.2073103"
         aria-label="">
        <path
           id="path992"
           style="font-style:normal;font-variant:normal;font-weight:normal;font-stretch:normal;font-family:bravura;-inkscape-font-specification:bravura;stroke-width:0.2073103"
           d="m 6.8470559,286.31038 c 0,0.4312 0.3565737,0.68827 0.804364,0.68827 0.7380246,0 1.6418975,-0.67998 1.6418975,-1.38483 0,-0.42292 -0.3316965,-0.68827 -0.804364,-0.68827 -0.9121652,0 -1.6418975,0.67168 -1.6418975,1.38483 z"
           inkscape:connector-curvature="0" />
      </g>
      <path
         id="path893"
         d="M 3.3235047,291.15546 H 3.1489199 c -0.04988,0 -0.083134,-0.0332 -0.083134,-0.0831 v -8.1473 c 0,-0.0499 0.033253,-0.0832 0.083134,-0.0832 h 0.1745848 c 0.04988,0 0.083133,0.0332 0.083133,0.0832 v 2.51069 h 1.5629526 v -3.10927 c 0,-0.39906 0.3657973,-0.7316 0.7731624,-0.7316 0.3907379,0 0.6817131,0.34085 0.6817131,0.7316 0,0.38242 -0.2992885,0.68171 -0.6817131,0.68171 -0.149644,0 -0.2992882,-0.0664 -0.4239925,-0.17458 v 3.53326 c 0,0.0665 -0.04988,0.11638 -0.1163918,0.11638 H 3.4066362 v 1.03919 l 1.7957323,-0.008 c 0.066514,0 0.1163918,0.0499 0.1163918,0.11639 v 3.53326 c 0.1247043,-0.10811 0.2743485,-0.17458 0.4239925,-0.17458 0.3824246,0 0.6817131,0.30761 0.6817131,0.69002 0,0.39076 -0.2909752,0.72329 -0.6817131,0.72329 -0.4073651,0 -0.7731624,-0.32422 -0.7731624,-0.72329 V 288.5616 H 3.4066378 v 2.51069 c 0,0.0499 -0.033253,0.0831 -0.083133,0.0831 z m -0.681713,0 H 1.652476 c -0.049888,0 -0.083134,-0.0332 -0.083134,-0.0831 v -8.1473 c 0,-0.0499 0.033253,-0.0832 0.083134,-0.0832 h 0.9893157 c 0.049888,0 0.083135,0.0332 0.083135,0.0832 v 8.1473 c 0,0.0499 -0.033253,0.0831 -0.083135,0.0831 z"
         inkscape:connector-curvature="0"
         style="fill:currentColor;stroke-width:0.00831357" />
      <g
         id="text957"
         style="font-style:normal;font-variant:normal;font-weight:normal;font-stretch:normal;font-size:8.2924118px;line-height:1.25;font-family:Academico;-inkscape-font-specification:Academico;letter-spacing:0px;word-spacing:0px;fill:#000000;fill-opacity:1;stroke:none;stroke-width:0.2073103"
         aria-label="">
        <path
           id="path1001"
           style="font-style:normal;font-variant:normal;font-weight:normal;font-stretch:normal;font-family:bravura;-inkscape-font-specification:bravura;stroke-width:0.2073103"
           d="m 9.7159081,292.50978 c 0,0.43121 0.3565739,0.68827 0.8043639,0.68827 0.738025,0 1.641898,-0.67998 1.641898,-1.38483 0,-0.42292 -0.331697,-0.68827 -0.804364,-0.68827 -0.912166,0 -1.6418979,0.67168 -1.6418979,1.38483 z"
           inkscape:connector-curvature="0" />
      </g>
      <g
         id="text961"
         style="font-style:normal;font-variant:normal;font-weight:normal;font-stretch:normal;font-size:9.64948654px;line-height:1.25;font-family:Academico;-inkscape-font-specification:Academico;letter-spacing:0px;word-spacing:0px;fill:#000000;fill-opacity:1;stroke:none;stroke-width:0.24123713"
         aria-label="">
        <path
           id="path1004"
           style="font-style:normal;font-variant:normal;font-weight:normal;font-stretch:normal;font-size:8.2924118px;font-family:Bravura;-inkscape-font-specification:Bravura;stroke-width:0.24123713"
           d="m 9.568185,291.68831 c 0,-0.47266 -0.3648661,-0.77119 -0.7463171,-0.79607 -0.140971,0 -0.3399889,0.0663 -0.4560826,0.14097 -0.049755,0.0415 -0.140971,0.1161 -0.1824331,0.1161 -0.016585,0 -0.024877,0 -0.041462,-0.008 -0.058047,-0.0249 -0.091216,-0.0829 -0.091216,-0.14097 0.00829,-0.18243 0.058047,-2.17261 0.058047,-2.33846 0,-0.0912 -0.074632,-0.14097 -0.1575558,-0.14097 -0.1160938,0 -0.2487724,0.0829 -0.2570648,0.23219 0,0 0.03317,4.73497 0.099509,4.81789 0.024877,0.0332 0.049754,0.0415 0.074632,0.0415 0.024877,0 0.049754,-0.0166 0.049754,-0.0166 0.2487724,-0.14097 0.4477903,-0.36487 0.6551006,-0.50584 0.7380246,-0.51413 0.9950894,-1.01997 0.9950894,-1.40142 z m -0.5721764,0.12439 c 0,0.44779 -0.381451,0.89558 -0.7380247,1.11947 -0.03317,0.0166 -0.058047,0.0249 -0.082924,0.0249 -0.074632,0 -0.091216,-0.0829 -0.091216,-0.12438 0,0 -0.024877,-0.49755 -0.024877,-0.82925 0,-0.13267 0.00829,-0.23218 0.016585,-0.26535 0.058047,-0.16585 0.3897434,-0.40633 0.5804689,-0.40633 0.2404799,0 0.3399889,0.27365 0.3399889,0.48096 z"
           inkscape:connector-curvature="0" />
      </g>
      <g
         id="text953"
         style="font-style:normal;font-variant:normal;font-weight:normal;font-stretch:normal;font-size:8.2924118px;line-height:1.25;font-family:Academico;-inkscape-font-specification:Academico;letter-spacing:0px;word-spacing:0px;fill:#000000;fill-opacity:1;stroke:none;stroke-width:0.2073103"
         aria-label="">
        <path
           id="path1007"
           style="font-style:normal;font-variant:normal;font-weight:normal;font-stretch:normal;font-family:bravura;-inkscape-font-specification:bravura;stroke-width:0.2073103"
           d="m 12.58476,283.20073 c 0,0.4312 0.356573,0.68827 0.804364,0.68827 0.738024,0 1.641897,-0.67998 1.641897,-1.38483 0,-0.42292 -0.331696,-0.68827 -0.804364,-0.68827 -0.912165,0 -1.641897,0.67168 -1.641897,1.38483 z"
           inkscape:connector-curvature="0" />
      </g>
      <path
         sodipodi:nodetypes="ccccc"
         inkscape:connector-curvature="0"
         id="rect978"
         d="m 13.770193,282.51834 h 2.651938 v 0.66818 h -2.651938 z"
         style="fill:#000000;fill-opacity:1;stroke:#000000;stroke-width:0.40000001;stroke-linecap:square;stroke-miterlimit:4;stroke-dasharray:none;stroke-dashoffset:0;stroke-opacity:1" />
      <path
         sodipodi:nodetypes="ccccc"
         inkscape:connector-curvature="0"
         id="rect988"
         d="m 8.2422915,285.62802 h 8.1798395 v 0.66818 H 8.2422915 Z"
         style="fill:#000000;fill-opacity:1;stroke:#000000;stroke-width:0.40000001;stroke-linecap:square;stroke-miterlimit:4;stroke-dasharray:none;stroke-dashoffset:0;stroke-opacity:1" />
      <path
         sodipodi:nodetypes="ccccc"
         inkscape:connector-curvature="0"
         id="rect990"
         d="m 10.935371,291.82739 h 5.486759 v 0.66818 h -5.486759 z"
         style="fill:#000000;fill-opacity:1;stroke:#000000;stroke-width:0.40000001;stroke-linecap:square;stroke-miterlimit:4;stroke-dasharray:none;stroke-dashoffset:0;stroke-opacity:1" />
    </g>
  </g>
</svg>
