<?xml version="1.0" encoding="UTF-8" standalone="no"?>
<svg
   xmlns:dc="http://purl.org/dc/elements/1.1/"
   xmlns:cc="http://creativecommons.org/ns#"
   xmlns:rdf="http://www.w3.org/1999/02/22-rdf-syntax-ns#"
   xmlns:svg="http://www.w3.org/2000/svg"
   xmlns="http://www.w3.org/2000/svg"
   xmlns:sodipodi="http://sodipodi.sourceforge.net/DTD/sodipodi-0.dtd"
   xmlns:inkscape="http://www.inkscape.org/namespaces/inkscape"
   viewBox="0 0 448 448"
   version="1.1"
   id="svg4"
   sodipodi:docname="800.svg"
   inkscape:version="0.92.3 (2405546, 2018-03-11)"
   width="448"
   height="448"
   inkscape:export-filename="C:\Users\david\Dropbox\Music_Projects\OM_LIBS\omdsg\resources\icon\800.png"
   inkscape:export-xdpi="13.714286"
   inkscape:export-ydpi="13.714286">
  <metadata
     id="metadata10">
    <rdf:RDF>
      <cc:Work
         rdf:about="">
        <dc:format>image/svg+xml</dc:format>
        <dc:type
           rdf:resource="http://purl.org/dc/dcmitype/StillImage" />
        <dc:title />
      </cc:Work>
    </rdf:RDF>
  </metadata>
  <defs
     id="defs8" />
  <sodipodi:namedview
     pagecolor="#ffffff"
     bordercolor="#666666"
     borderopacity="1"
     objecttolerance="10"
     gridtolerance="10"
     guidetolerance="10"
     inkscape:pageopacity="0"
     inkscape:pageshadow="2"
     inkscape:window-width="1920"
     inkscape:window-height="1027"
     id="namedview6"
     showgrid="false"
     inkscape:zoom="0.4609375"
     inkscape:cx="-424.67796"
     inkscape:cy="224"
     inkscape:window-x="-8"
     inkscape:window-y="-8"
     inkscape:window-maximized="1"
     inkscape:current-layer="svg4"
     fit-margin-top="0"
     fit-margin-left="0"
     fit-margin-right="0"
     fit-margin-bottom="0" />
  <path
     d="M 400,0 H 48 C 21.49,0 0,21.49 0,48 v 352 c 0,26.51 21.49,48 48,48 h 352 c 26.51,0 48,-21.49 48,-48 V 48 C 448,21.49 426.51,0 400,0 Z m 0,400 H 48 V 48 H 400 Z M 364.136,158.276 191.547,329.48 c -4.705,4.667 -12.303,4.637 -16.97,-0.068 L 83.796,237.896 c -4.667,-4.705 -4.637,-12.303 0.069,-16.971 l 22.719,-22.536 c 4.705,-4.667 12.303,-4.637 16.97,0.069 l 59.792,60.277 141.352,-140.216 c 4.705,-4.667 12.303,-4.637 16.97,0.068 l 22.536,22.718 c 4.667,4.706 4.637,12.304 -0.068,16.971 z"
     id="path2"
     style="fill:#008000"
     inkscape:connector-curvature="0" />
</svg>
